<mxfile host="app.diagrams.net" modified="2023-11-26T18:04:14.621Z" agent="Mozilla/5.0 (Windows NT 10.0; Win64; x64) AppleWebKit/537.36 (KHTML, like Gecko) Chrome/119.0.0.0 Safari/537.36" etag="QguhJxom8kzjARSDzNFf" version="22.1.4" type="github">
  <diagram id="C5RBs43oDa-KdzZeNtuy" name="Page-1">
    <mxGraphModel dx="1050" dy="566" grid="1" gridSize="10" guides="1" tooltips="1" connect="1" arrows="1" fold="1" page="1" pageScale="1" pageWidth="827" pageHeight="1169" math="0" shadow="0">
      <root>
        <mxCell id="WIyWlLk6GJQsqaUBKTNV-0" />
        <mxCell id="WIyWlLk6GJQsqaUBKTNV-1" parent="WIyWlLk6GJQsqaUBKTNV-0" />
        <mxCell id="WUWsrMURFONLZKceZLhH-1" value="" style="edgeStyle=orthogonalEdgeStyle;rounded=0;orthogonalLoop=1;jettySize=auto;html=1;" edge="1" parent="WIyWlLk6GJQsqaUBKTNV-1" source="WIyWlLk6GJQsqaUBKTNV-3">
          <mxGeometry relative="1" as="geometry">
            <mxPoint x="450" y="95" as="targetPoint" />
          </mxGeometry>
        </mxCell>
        <mxCell id="WUWsrMURFONLZKceZLhH-4" value="" style="edgeStyle=orthogonalEdgeStyle;rounded=0;orthogonalLoop=1;jettySize=auto;html=1;" edge="1" parent="WIyWlLk6GJQsqaUBKTNV-1" source="WIyWlLk6GJQsqaUBKTNV-3" target="WUWsrMURFONLZKceZLhH-3">
          <mxGeometry relative="1" as="geometry">
            <Array as="points">
              <mxPoint x="20" y="95" />
              <mxPoint x="20" y="315" />
            </Array>
          </mxGeometry>
        </mxCell>
        <mxCell id="WUWsrMURFONLZKceZLhH-9" value="" style="edgeStyle=orthogonalEdgeStyle;rounded=0;orthogonalLoop=1;jettySize=auto;html=1;" edge="1" parent="WIyWlLk6GJQsqaUBKTNV-1" source="WIyWlLk6GJQsqaUBKTNV-3" target="WUWsrMURFONLZKceZLhH-8">
          <mxGeometry relative="1" as="geometry" />
        </mxCell>
        <mxCell id="WIyWlLk6GJQsqaUBKTNV-3" value="spotted home page.&lt;br&gt;here users will be greeted and presented with 3 options.&lt;br&gt;1. lost pet&lt;br&gt;2.found pet&lt;br&gt;3.contact us" style="rounded=1;whiteSpace=wrap;html=1;fontSize=12;glass=0;strokeWidth=1;shadow=0;" parent="WIyWlLk6GJQsqaUBKTNV-1" vertex="1">
          <mxGeometry x="110" y="30" width="200" height="130" as="geometry" />
        </mxCell>
        <mxCell id="WUWsrMURFONLZKceZLhH-2" value="lost pet page.&lt;br&gt;here users can upload an image of their loved one along with information&#39;s such as location last seen, and temperament of animal. to inform anyone if the pet is approachable or not.&amp;nbsp;&lt;br&gt;after information in uploaded users will be sent to the &quot;found&quot; pet page where they can browse through all spotted pets by area. incase their loved one wondered a bit to far." style="rounded=1;whiteSpace=wrap;html=1;" vertex="1" parent="WIyWlLk6GJQsqaUBKTNV-1">
          <mxGeometry x="450" y="40" width="260" height="180" as="geometry" />
        </mxCell>
        <mxCell id="WUWsrMURFONLZKceZLhH-3" value="found pet information.&lt;br&gt;here users will be presented with images and names of lost pets/loved ones in their area.&lt;br&gt;this page will be for users looking to see if their pet has already been &quot;spotted&quot;" style="rounded=1;whiteSpace=wrap;html=1;" vertex="1" parent="WIyWlLk6GJQsqaUBKTNV-1">
          <mxGeometry x="100" y="350" width="180" height="130" as="geometry" />
        </mxCell>
        <mxCell id="WUWsrMURFONLZKceZLhH-6" style="edgeStyle=orthogonalEdgeStyle;rounded=0;orthogonalLoop=1;jettySize=auto;html=1;exitX=0.5;exitY=1;exitDx=0;exitDy=0;" edge="1" parent="WIyWlLk6GJQsqaUBKTNV-1" source="WUWsrMURFONLZKceZLhH-3" target="WUWsrMURFONLZKceZLhH-3">
          <mxGeometry relative="1" as="geometry" />
        </mxCell>
        <mxCell id="WUWsrMURFONLZKceZLhH-8" value="this will be the contact page. where users can views our mission statement as well as tips on how to care and potential shelters near by to drop off any found pets." style="rounded=1;whiteSpace=wrap;html=1;fontSize=12;glass=0;strokeWidth=1;shadow=0;" vertex="1" parent="WIyWlLk6GJQsqaUBKTNV-1">
          <mxGeometry x="180" y="180" width="200" height="130" as="geometry" />
        </mxCell>
        <mxCell id="WUWsrMURFONLZKceZLhH-13" value="" style="endArrow=classic;html=1;rounded=0;entryX=0.989;entryY=0.345;entryDx=0;entryDy=0;entryPerimeter=0;exitX=0.25;exitY=1;exitDx=0;exitDy=0;" edge="1" parent="WIyWlLk6GJQsqaUBKTNV-1" source="WUWsrMURFONLZKceZLhH-2" target="WUWsrMURFONLZKceZLhH-3">
          <mxGeometry width="50" height="50" relative="1" as="geometry">
            <mxPoint x="530" y="240" as="sourcePoint" />
            <mxPoint x="450" y="260" as="targetPoint" />
            <Array as="points">
              <mxPoint x="520" y="395" />
            </Array>
          </mxGeometry>
        </mxCell>
      </root>
    </mxGraphModel>
  </diagram>
</mxfile>
